# xmcd
#
# Track frame offsets: 
#        150
#        19167
#        29697
#        51360
#        70420
#        80645
#        93615
#        119127
#        134985
#
# Disc length: 2078 seconds
#
# Revision: 1
# Processed by: cddbd v1.5.2PL0 Copyright (c) Steve Scherf et al.
# Submitted via: ExactAudioCopy v0.99pb5
#
DISCID=91081c09
DTITLE=Charlie Musselwhite - Louisana Fog
DYEAR=1900
DGENRE=Blues
TTITLE0=Louisana Fog
TTITLE1=Takin' Care of Business
TTITLE2=Big Legged Woman
TTITLE3=Riffin'
TTITLE4=Leavin'
TTITLE5=Just A Little Bit
TTITLE6=Fell On My Knees
TTITLE7=Directly From My Heart
TTITLE8=Fat City
EXTD=
EXTT0=
EXTT1=
EXTT2=
EXTT3=
EXTT4=
EXTT5=
EXTT6=
EXTT7=
EXTT8=
PLAYORDER=
